<svg width="1042" height="672" viewBox="0 0 1042 672" fill="none" xmlns="http://www.w3.org/2000/svg">
<g clip-path="url(#clip0)">
<path d="M433 93.9166C497.293 121.316 552 150.359 646.5 119.099C722.631 93.9166 728.752 76.545 765.5 54.5C897.508 -24.6922 940 107 936.5 147C932.506 192.643 929 167 910 237C894.67 293.48 914 290.5 953.5 334C993 377.5 949.5 404.5 903.5 418C857.5 431.5 802.864 435.852 739.647 429.32C661.438 421.238 540.707 442.852 448.004 442.852C351 442.852 183.5 485.5 116 461C79.7755 447.852 63 396 129.5 334C158.508 306.955 190.5 282.5 166 241C155.512 223.234 84.861 186.874 107.5 126C134.465 53.4947 192.094 39.1922 221 39.1922C283.5 39.1922 375.471 69.3998 433 93.9166Z" fill="#F4E699" fill-opacity="0.45"/>
<path d="M692.341 670.58H296.666C283.691 670.58 271.247 665.06 262.072 655.234C252.897 645.408 247.742 632.081 247.742 618.184V424.042C247.742 421.223 248.279 418.433 249.318 415.843C250.358 413.253 251.88 410.917 253.79 408.977L463.459 196.126C471.842 187.615 482.953 182.872 494.503 182.872C506.054 182.872 517.165 187.615 525.548 196.126L725.456 399.068C730.45 404.138 734.427 410.244 737.145 417.014C739.863 423.784 741.265 431.076 741.265 438.445V618.184C741.265 625.065 739.999 631.878 737.541 638.235C735.082 644.592 731.478 650.368 726.935 655.234C722.392 660.099 716.999 663.958 711.063 666.591C705.128 669.224 698.766 670.58 692.341 670.58Z" fill="#3F3D56"/>
<path opacity="0.1" d="M247.742 427.23H737.152V638.942C737.152 647.333 734.04 655.38 728.5 661.313C722.959 667.246 715.445 670.58 707.61 670.58H277.284C269.449 670.58 261.935 667.246 256.395 661.313C250.855 655.38 247.742 647.333 247.742 638.942V427.23Z" fill="black"/>
<path d="M649.057 260.408H338.922C324.055 260.408 312.003 273.315 312.003 289.237V621.38C312.003 637.302 324.055 650.209 338.922 650.209H649.057C663.924 650.209 675.976 637.302 675.976 621.38V289.237C675.976 273.315 663.924 260.408 649.057 260.408Z" fill="#ECD341"/>
<path opacity="0.1" d="M675.976 435.984V650.209H312.003V435.984L493.989 530.186L675.976 435.984Z" fill="black"/>
<path d="M493.989 542.298L260.806 421.595C259.364 420.849 257.768 420.506 256.169 420.601C254.569 420.695 253.018 421.223 251.661 422.135C250.304 423.046 249.186 424.312 248.41 425.814C247.635 427.315 247.228 429.002 247.228 430.718V638.391C247.228 642.546 247.992 646.66 249.477 650.499C250.962 654.337 253.138 657.825 255.881 660.763C258.624 663.7 261.881 666.031 265.465 667.621C269.049 669.211 272.89 670.029 276.77 670.029H711.209C715.088 670.029 718.93 669.211 722.514 667.621C726.098 666.031 729.355 663.7 732.098 660.763C734.841 657.825 737.017 654.337 738.502 650.499C739.987 646.66 740.751 642.546 740.751 638.391V434.276C740.751 432.182 740.254 430.123 739.308 428.291C738.362 426.459 736.997 424.914 735.341 423.802C733.685 422.689 731.792 422.045 729.841 421.93C727.889 421.815 725.942 422.232 724.182 423.143L493.989 542.298Z" fill="#3F3D56"/>
<path d="M445.151 296.195H343.362V311.611H445.151V296.195Z" fill="#F2F2F2"/>
<path d="M637.419 352.353H335.137V361.162H637.419V352.353Z" fill="#F2F2F2"/>
<path d="M637.419 382.083H335.137V390.892H637.419V382.083Z" fill="#F2F2F2"/>
<path d="M637.419 411.814H335.137V420.623H637.419V411.814Z" fill="#F2F2F2"/>
<path d="M0 534.438C0 599.361 38.0306 651.895 85.0291 651.895L0 534.438Z" fill="#46455B"/>
<path d="M85.0291 651.895C85.0291 586.243 127.469 533.118 179.917 533.118L85.0291 651.895Z" fill="#ECD341"/>
<path d="M30.8076 540.323C30.8076 601.993 55.0591 651.895 85.0291 651.895L30.8076 540.323Z" fill="#ECD341"/>
<path d="M85.0291 651.895C85.0291 568.006 134.083 500.124 194.704 500.124L85.0291 651.895Z" fill="#46455B"/>
<path d="M67.1412 652.723C67.1412 652.723 79.1997 652.326 82.8339 649.554C86.468 646.783 101.383 643.474 102.284 647.918C103.186 652.363 120.406 670.025 106.792 670.142C93.1782 670.26 75.1593 667.871 71.5321 665.505C67.905 663.139 67.1412 652.723 67.1412 652.723Z" fill="#A8A8A8"/>
<path opacity="0.2" d="M107.035 668.595C93.4211 668.713 75.4022 666.324 71.7751 663.958C69.0128 662.156 67.9121 655.69 67.5438 652.707C67.2887 652.718 67.1412 652.723 67.1412 652.723C67.1412 652.723 67.905 663.139 71.5321 665.505C75.1593 667.871 93.1782 670.26 106.792 670.142C110.722 670.108 112.079 668.611 112.005 666.393C111.459 667.733 109.96 668.57 107.035 668.595Z" fill="black"/>
<path d="M739.989 179.232C739.371 185.128 735.172 189.877 733.616 195.572C731.274 204.142 735.323 213.339 740.862 220.014C745.332 225.343 750.744 229.67 756.786 232.742C762.828 235.814 769.38 237.572 776.061 237.913C778.023 238.097 780.001 237.867 781.88 237.233C783.558 236.51 785.069 235.404 786.308 233.993C790.479 229.507 792.719 223.291 793.611 217.033C794.503 210.774 794.157 204.398 793.808 198.078C793.809 196.772 793.588 195.476 793.154 194.255C792.585 193.092 791.803 192.063 790.856 191.23C787.853 188.28 784.545 185.706 780.996 183.559C779.392 182.789 777.977 181.63 776.864 180.173C776.194 178.925 775.76 177.548 775.587 176.12L774.498 170.175C774.304 168.462 773.757 166.816 772.898 165.356C770.974 162.576 767.293 162.197 764.064 162.062L752.235 161.565C748.555 161.41 743.707 160.28 740.115 161.054C736.761 161.777 737.875 165.087 738.484 168.101C739.368 171.741 739.872 175.474 739.989 179.232Z" fill="#A0616A"/>
<path opacity="0.1" d="M739.989 179.232C739.371 185.128 735.172 189.877 733.616 195.572C731.274 204.142 735.323 213.339 740.862 220.014C745.332 225.343 750.744 229.67 756.786 232.742C762.828 235.814 769.38 237.572 776.061 237.913C778.023 238.097 780.001 237.867 781.88 237.233C783.558 236.51 785.069 235.404 786.308 233.993C790.479 229.507 792.719 223.291 793.611 217.033C794.503 210.774 794.157 204.398 793.808 198.078C793.809 196.772 793.588 195.476 793.154 194.255C792.585 193.092 791.803 192.063 790.856 191.23C787.853 188.28 784.545 185.706 780.996 183.559C779.392 182.789 777.977 181.63 776.864 180.173C776.194 178.925 775.76 177.548 775.587 176.12L774.498 170.175C774.304 168.462 773.757 166.816 772.898 165.356C770.974 162.576 767.293 162.197 764.064 162.062L752.235 161.565C748.555 161.41 743.707 160.28 740.115 161.054C736.761 161.777 737.875 165.087 738.484 168.101C739.368 171.741 739.872 175.474 739.989 179.232Z" fill="black"/>
<path d="M815.239 444.616C813.563 464.296 811.887 483.973 810.211 503.646C808.899 519.129 807.562 534.675 804.989 549.958C804.1 555.225 803.059 560.464 801.823 565.658C798.386 580.08 793.401 594.176 791.793 608.961C791.742 609.387 791.7 609.822 791.658 610.257C791.477 613.526 790.9 616.757 789.939 619.866C789.135 622.123 787.899 624.181 787.028 626.411C785.292 630.87 785.064 635.802 784.852 640.633C778.749 636.957 772.067 634.511 765.139 633.418C761.796 632.883 758.072 632.502 755.795 629.828C753.273 626.873 753.552 622.349 753.975 618.379C755.304 606.051 756.63 593.729 757.953 581.413C758.385 576.114 759.226 570.863 760.467 565.713C760.924 564 761.474 562.314 762.033 560.628C762.803 558.307 763.582 555.986 764.166 553.602C765.007 549.75 765.596 545.84 765.926 541.9C767.289 529.499 768.931 517.126 770.37 504.734L770.446 504.081C772.605 485.299 774.247 466.426 773.773 447.508C773.705 444.707 773.595 441.906 773.426 439.096C773.189 435.026 772.842 432.869 775.99 430.321C779.469 427.511 784.048 425.544 788.026 423.704C790.168 422.707 813.749 413.742 814.299 415.709C815.405 419.905 815.986 424.239 816.026 428.599C816.043 433.95 815.78 439.297 815.239 444.616Z" fill="#605D82"/>
<path opacity="0.1" d="M804.989 549.958C804.1 555.225 803.059 560.464 801.823 565.658C798.386 580.08 793.401 594.176 791.793 608.961C791.742 609.387 791.7 609.822 791.658 610.257C781.145 594.176 772.292 576.881 762.033 560.627C762.803 558.307 763.582 555.986 764.166 553.602C765.008 549.75 765.596 545.84 765.926 541.9C767.289 529.499 768.931 517.125 770.37 504.734L770.446 504.081C771.048 506.712 771.908 509.267 773.011 511.705C779.901 526.698 796.27 534.276 804.278 548.626C804.523 549.07 804.76 549.514 804.989 549.958Z" fill="black"/>
<path d="M719.686 418.12C720.034 430.145 721.831 442.062 723.625 453.939L727.326 478.443C729.351 491.854 731.46 505.539 737.386 517.551C741.819 526.537 748.206 534.204 753.984 542.266C768.188 562.084 778.86 584.535 792.329 604.934C796.244 610.863 801.84 617.276 808.521 616.038C812.906 615.225 816.091 611.315 819.538 608.3C823.602 604.746 828.5 602.145 831.698 597.69C834.895 593.235 835.522 585.83 831.19 582.66C829.622 581.73 827.958 581 826.231 580.487C819.516 577.752 815.169 570.728 812.404 563.627C809.638 556.525 807.962 548.889 804.277 542.284C796.27 527.934 779.898 520.356 773.007 505.358C769.147 496.957 768.779 487.275 768.484 477.918L767.732 454.065C767.65 451.457 767.586 448.744 768.576 446.359C771.212 440.01 779.171 439.418 785.616 438.613C792.93 437.695 800.016 435.301 806.498 431.557C810.21 429.411 813.836 426.674 815.822 422.688C817.634 419.051 817.884 414.786 818.096 410.67L820.328 367.442C820.52 363.723 820.695 359.878 819.471 356.391C816.397 347.637 806.075 344.776 797.351 345.194C781.116 345.971 766.129 353.45 750.821 358.501C747.03 359.782 743.18 360.857 739.288 361.723C735.852 362.461 731.695 362.155 728.418 363.338C722.591 365.442 722.739 379.089 721.913 384.75C720.206 395.775 719.461 406.947 719.686 418.12Z" fill="#605D82"/>
<path d="M806.317 617.85C807.748 619.396 808.216 621.661 808.589 623.802C810.657 635.675 811.733 647.723 811.803 659.8C811.708 660.927 811.918 662.06 812.408 663.062C812.812 663.66 813.358 664.13 813.99 664.423C818.127 666.535 822.93 663.592 826.377 660.357C832.769 654.361 838.177 646.313 838.54 637.221C838.474 634.88 838.55 632.536 838.769 630.205C839.331 626.782 841.197 623.8 842.841 620.804C845.64 615.704 847.897 610.285 849.571 604.648C850.2 602.531 850.618 599.864 849.068 598.386C848.519 597.925 847.894 597.577 847.226 597.36L828.535 589.928C826.916 589.284 822.885 600.371 822.246 601.584C820.681 604.549 819.125 606.232 815.986 606.916C812.782 607.615 808.967 606.612 805.977 608.325C800.919 611.221 803.453 614.757 806.317 617.85Z" fill="#535070"/>
<path d="M777.477 624.692C777.129 623.952 776.645 623.295 776.054 622.76C775.189 622.173 774.205 621.815 773.184 621.716C769.626 621.069 765.409 620.643 762.953 623.476C760.65 626.131 761.046 630.457 759.121 633.438C758.512 634.381 757.686 635.159 757.158 636.157C756.502 637.682 756.206 639.357 756.296 641.034C756.197 645.653 756.098 650.28 756.396 654.89C756.646 658.753 757.254 662.801 759.509 665.827C763.129 670.684 769.659 671.383 775.454 671.698L780.148 671.953C781.441 672.121 782.752 671.993 783.995 671.575C784.764 671.195 785.454 670.652 786.024 669.981C786.594 669.309 787.032 668.522 787.313 667.666C789.756 661.162 785.887 654.155 783.503 647.625C780.764 640.121 781.256 631.788 777.477 624.692Z" fill="#535070"/>
<path d="M738.629 146.01C738.571 145.351 738.662 144.686 738.893 144.072C739.58 142.77 741.375 143.124 742.73 143.49C748.176 144.96 753.914 143.629 759.521 143.973C765.128 144.316 771.444 147.319 772.572 153.211C776.642 150.121 780.15 146.26 782.924 141.819C784.48 139.325 785.837 136.469 785.625 133.477C785.319 129.163 781.939 125.937 778.81 123.201L769.481 115.045C768.257 113.84 766.843 112.877 765.304 112.201C763.15 111.412 760.801 111.788 758.524 111.789C751.733 111.794 744.493 108.484 738.454 111.809C735.931 113.198 734.032 115.578 732.201 117.899L723.875 128.454C723.248 129.127 722.791 129.958 722.544 130.871C722.307 132.16 722.925 133.431 723.141 134.724C723.534 137.082 722.586 139.599 723.315 141.863C724.525 145.623 728.787 146.155 731.393 148.31C732.364 149.113 733.886 151.835 735.043 151.802C737.131 151.742 738.574 147.747 738.629 146.01Z" fill="#3F3D56"/>
<path d="M752.756 177.124C767.481 177.124 779.418 164.34 779.418 148.57C779.418 132.8 767.481 120.016 752.756 120.016C738.031 120.016 726.094 132.8 726.094 148.57C726.094 164.34 738.031 177.124 752.756 177.124Z" fill="#A0616A"/>
<path d="M759.001 211.061C758.096 208.286 756.39 205.892 754.129 204.225C751.868 202.559 749.17 201.708 746.427 201.794C745.642 201.95 744.832 201.841 744.108 201.48C743.699 201.143 743.372 200.705 743.155 200.204C741.533 197.081 740.23 193.782 739.267 190.361C738.842 188.85 738.26 187.068 736.833 186.675C736.242 186.592 735.641 186.683 735.094 186.938C734.547 187.192 734.075 187.601 733.729 188.121C733.051 189.167 732.31 190.164 731.511 191.107C728.158 194.318 722.213 191.391 718.654 194.337C718.073 194.818 717.593 195.434 716.983 195.872C716.371 196.266 715.713 196.569 715.025 196.771C708.152 199.174 701.415 202 694.846 205.235C697.213 220.504 699.639 236.04 705.189 250.332C707.829 257.133 710.822 263.794 712.937 270.803C717.623 286.333 717.83 302.949 717.883 319.27C717.919 330.44 717.867 341.848 714.493 352.417C713.585 354.753 712.945 357.198 712.587 359.699C712.383 362.218 713.068 364.995 714.973 366.487C716.078 367.261 717.341 367.736 718.655 367.872C724.502 368.791 730.397 367.124 736.154 365.696C751.585 361.869 767.323 359.679 783.03 357.495L809.352 353.835C811.238 353.697 813.085 353.186 814.797 352.327C819.614 349.503 820.071 341.744 817.08 336.812C815.646 334.448 813.623 332.508 812.418 330.001C811.213 327.495 811.111 323.989 813.185 322.253C817.404 318.722 816.145 312.169 816.346 306.438C816.909 290.414 816.833 274.384 816.118 258.347C815.907 255.027 815.857 251.698 815.97 248.373C816.437 242.738 817.409 237.165 818.872 231.729L826.87 198.004C824.781 194.468 820.78 192.225 816.991 191.206C813.201 190.188 809.254 189.888 805.522 188.649C797.876 186.112 791.07 179.673 783.085 180.273C782.481 180.285 781.887 180.44 781.346 180.728C779.545 181.82 779.83 184.6 779.715 186.813C779.46 191.71 776.097 195.802 772.384 198.671C768.67 201.541 764.429 203.633 761.018 206.905C760.414 207.393 759.919 208.019 759.57 208.738C759.221 209.457 759.026 210.251 759.001 211.061Z" fill="#3F3D56"/>
<path d="M653.357 243.051C651.589 244.279 649.71 245.314 647.749 246.141C645.828 246.753 644.014 247.696 642.377 248.933C641.622 249.632 640.989 250.469 640.508 251.405C639.606 253.119 639.149 255.061 639.187 257.029C639.224 258.996 639.754 260.917 640.721 262.59C641.688 264.263 643.057 265.628 644.684 266.541C646.312 267.455 648.138 267.884 649.973 267.783C652.412 267.491 654.782 266.734 656.973 265.548L675.778 256.821C678.961 255.344 682.399 253.613 683.903 250.265C684.079 249.953 684.144 249.584 684.086 249.225C683.935 248.845 683.661 248.536 683.314 248.355C679.072 245.405 675.363 241.659 672.364 237.297C671.592 236.175 670.648 233.527 669.558 232.854C665.577 230.399 656.543 240.836 653.357 243.051Z" fill="#A0616A"/>
<path d="M854.393 235.889L861.326 244.371C862.814 246.192 864.304 248.015 865.661 249.95C868.993 254.868 871.665 260.26 873.602 265.971C875.109 270.206 876.359 274.718 875.833 279.215C875.483 281.52 874.902 283.778 874.099 285.95C872.828 290.126 871.253 294.189 869.388 298.101C867.819 301.074 866.047 303.917 864.086 306.61C858.718 314.229 852.845 321.424 846.511 328.139C844.141 330.652 843.147 334.715 842.115 338.112C840.212 344.377 835.684 349.257 831.304 353.884C829.897 355.475 828.342 356.909 826.663 358.162C824.147 359.897 821.207 360.794 818.215 360.738C816.905 360.748 815.609 360.461 814.41 359.895C811.413 358.371 809.89 354.66 809.578 351.123C809.299 347.913 809.801 344.68 811.036 341.74C815.014 332.302 825.231 328.212 832.452 321.325C836.687 317.287 839.925 312.214 843.119 307.197C845.288 304.064 847.099 300.664 848.513 297.07C850.126 292.462 849.498 287.006 850.907 282.321C851.503 280.341 852.562 278.553 853.202 276.589C853.842 274.625 854.004 272.294 852.883 270.594C852.038 269.514 850.961 268.669 849.744 268.133C845.131 265.625 839.964 262.398 839.081 256.939C838.73 253.911 839.468 250.854 841.147 248.389C842.82 245.957 844.775 243.763 846.964 241.86C848.982 239.949 852.375 237.8 854.393 235.889Z" fill="#A0616A"/>
<path d="M648.906 254.89C647.682 252.242 646.151 249.54 643.681 248.223C642.483 247.666 641.192 247.376 639.887 247.37C638.581 247.364 637.288 247.643 636.086 248.189C633.691 249.295 631.448 250.747 629.421 252.505L623.445 257.223C622.09 258.175 620.891 259.36 619.897 260.731C618.954 262.393 618.326 264.238 618.049 266.16C617.008 270.544 616.69 275.089 617.11 279.59C618.058 286.807 622.121 293.108 626.593 298.602C629.387 302.035 632.837 305.499 637.088 305.646C638.922 305.709 640.963 304.934 641.726 303.146C641.99 302.438 642.131 301.683 642.14 300.92C642.599 292.869 639.91 285.006 636.775 277.674C635.775 275.754 635.184 273.621 635.045 271.427C635.022 271.058 635.112 270.691 635.3 270.381C635.571 270.08 635.932 269.891 636.32 269.848C640.612 268.938 648.004 272.509 651.015 267.405C652.967 264.096 650.293 257.891 648.906 254.89Z" fill="#A0616A"/>
<path d="M737.231 137.025C737.173 136.366 737.263 135.701 737.494 135.087C738.182 133.785 739.977 134.139 741.331 134.505C746.777 135.975 752.516 134.644 758.123 134.988C763.73 135.332 770.046 138.334 771.174 144.226C775.243 141.136 778.752 137.275 781.526 132.834C783.082 130.34 784.438 127.484 784.227 124.493C783.921 120.178 780.541 116.952 777.412 114.216L768.083 106.06C766.859 104.855 765.444 103.892 763.906 103.216C761.752 102.427 759.402 102.803 757.126 102.805C750.335 102.809 743.095 99.4994 737.055 102.824C734.532 104.213 732.634 106.593 730.803 108.914L722.477 119.469C721.85 120.142 721.392 120.973 721.146 121.886C720.909 123.175 721.527 124.446 721.742 125.739C722.136 128.097 721.187 130.614 721.917 132.878C723.127 136.638 727.389 137.17 729.995 139.325C730.966 140.128 732.488 142.851 733.645 142.817C735.733 142.757 737.176 138.762 737.231 137.025Z" fill="#3F3D56"/>
<path d="M680.602 215.276C679.526 216.02 678.581 216.962 677.812 218.059C676.834 219.642 676.635 221.64 675.796 223.311C673.999 226.887 669.796 228.159 667.174 231.093C666.758 231.496 666.468 232.028 666.346 232.615C666.333 233.411 666.583 234.187 667.05 234.806L679.693 256.093C683.903 256.489 687.941 253.665 692.153 254.04C693.725 254.18 695.334 254.762 696.842 254.264C697.922 253.751 698.933 253.089 699.851 252.293C702.364 250.592 705.71 250.393 707.818 248.149C709.841 245.994 710.099 242.624 710.075 239.569C710.109 236.916 709.856 234.267 709.323 231.676C707.462 223.505 701.627 217.235 697.969 209.998C696.188 206.474 695.219 204.411 691.45 206.831C687.661 209.263 684.168 212.484 680.602 215.276Z" fill="#3F3D56"/>
<path d="M834.151 204.512C836.527 206.164 838.669 208.174 840.512 210.478C842.438 213.138 843.528 216.393 845.379 219.114C847.172 221.751 849.613 223.794 851.647 226.222C854.732 229.905 856.822 234.399 858.874 238.831C853.862 245.832 848.397 252.446 842.52 258.627C841.865 259.452 841.003 260.059 840.036 260.375C839.379 260.45 838.714 260.349 838.101 260.081C837.488 259.814 836.947 259.388 836.526 258.842C835.615 257.819 834.97 256.558 834.099 255.495C832.045 253.226 829.307 251.807 826.37 251.492C823.459 251.19 820.53 251.147 817.612 251.362C816.971 251.439 816.324 251.322 815.742 251.026C815.309 250.706 814.958 250.275 814.721 249.772C811.298 243.534 812.399 235.702 813.607 228.583L816.378 212.247C816.779 209.127 817.554 206.076 818.684 203.168C819.734 200.766 822.081 196.692 824.967 197.411C827.876 198.136 831.703 202.626 834.151 204.512Z" fill="#3F3D56"/>
<path d="M326.912 311.775C350.193 311.775 369.067 291.526 369.067 266.547C369.067 241.568 350.193 221.318 326.912 221.318C303.63 221.318 284.757 241.568 284.757 266.547C284.757 291.526 303.63 311.775 326.912 311.775Z" fill="white"/>
<path d="M326.912 213.61C316.947 213.61 307.207 216.775 298.922 222.703C290.637 228.632 284.179 237.059 280.366 246.918C276.553 256.777 275.555 267.626 277.499 278.092C279.443 288.558 284.241 298.172 291.287 305.718C298.333 313.264 307.31 318.402 317.083 320.484C326.856 322.566 336.986 321.498 346.191 317.414C355.397 313.33 363.265 306.415 368.801 297.542C374.337 288.669 377.292 278.237 377.292 267.566C377.253 253.269 371.932 239.569 362.493 229.46C353.053 219.35 340.261 213.652 326.912 213.61ZM316.569 296.333L290.749 268.681L297.991 260.925L316.593 280.847L355.856 238.798L363.098 246.554L316.569 296.333L316.569 296.333Z" fill="#0ACF86"/>
</g>
<defs>
<clipPath id="clip0">
<rect width="1042" height="672" fill="white"/>
</clipPath>
</defs>
</svg>
